<svg xmlns="http://www.w3.org/2000/svg" xmlns:xlink="http://www.w3.org/1999/xlink" width="500" zoomAndPan="magnify" viewBox="0 0 375 374.999991" height="500" preserveAspectRatio="xMidYMid meet" version="1.0"><defs><g/><clipPath id="d26f038c19"><path d="M 129 11.921875 L 317 11.921875 L 317 336 L 129 336 Z M 129 11.921875 " clip-rule="nonzero"/></clipPath><clipPath id="f665e2dbe5"><path d="M 187 11.921875 L 317 11.921875 L 317 228 L 187 228 Z M 187 11.921875 " clip-rule="nonzero"/></clipPath></defs><g fill="#000000" fill-opacity="1"><g transform="translate(172.230461, 58.9835)"><g><path d="M 6.90625 -2.34375 C 6.90625 -1.539062 6.609375 -0.921875 6.015625 -0.484375 C 5.421875 -0.0546875 4.585938 0.15625 3.515625 0.15625 C 2.378906 0.15625 1.492188 -0.0234375 0.859375 -0.390625 L 0.859375 -1.59375 C 1.265625 -1.382812 1.703125 -1.21875 2.171875 -1.09375 C 2.648438 -0.976562 3.109375 -0.921875 3.546875 -0.921875 C 4.222656 -0.921875 4.742188 -1.023438 5.109375 -1.234375 C 5.472656 -1.453125 5.65625 -1.785156 5.65625 -2.234375 C 5.65625 -2.566406 5.507812 -2.847656 5.21875 -3.078125 C 4.925781 -3.316406 4.363281 -3.597656 3.53125 -3.921875 C 2.726562 -4.222656 2.160156 -4.484375 1.828125 -4.703125 C 1.492188 -4.921875 1.242188 -5.171875 1.078125 -5.453125 C 0.910156 -5.734375 0.828125 -6.070312 0.828125 -6.46875 C 0.828125 -7.164062 1.109375 -7.710938 1.671875 -8.109375 C 2.242188 -8.515625 3.023438 -8.71875 4.015625 -8.71875 C 4.941406 -8.71875 5.84375 -8.53125 6.71875 -8.15625 L 6.265625 -7.109375 C 5.398438 -7.460938 4.617188 -7.640625 3.921875 -7.640625 C 3.304688 -7.640625 2.84375 -7.539062 2.53125 -7.34375 C 2.21875 -7.15625 2.0625 -6.890625 2.0625 -6.546875 C 2.0625 -6.316406 2.117188 -6.117188 2.234375 -5.953125 C 2.359375 -5.796875 2.550781 -5.644531 2.8125 -5.5 C 3.070312 -5.351562 3.570312 -5.144531 4.3125 -4.875 C 5.320312 -4.5 6.003906 -4.125 6.359375 -3.75 C 6.722656 -3.375 6.90625 -2.90625 6.90625 -2.34375 Z M 6.90625 -2.34375 "/></g></g></g><g fill="#000000" fill-opacity="1"><g transform="translate(179.861415, 58.9835)"><g><path d="M 6.90625 -2.34375 C 6.90625 -1.539062 6.609375 -0.921875 6.015625 -0.484375 C 5.421875 -0.0546875 4.585938 0.15625 3.515625 0.15625 C 2.378906 0.15625 1.492188 -0.0234375 0.859375 -0.390625 L 0.859375 -1.59375 C 1.265625 -1.382812 1.703125 -1.21875 2.171875 -1.09375 C 2.648438 -0.976562 3.109375 -0.921875 3.546875 -0.921875 C 4.222656 -0.921875 4.742188 -1.023438 5.109375 -1.234375 C 5.472656 -1.453125 5.65625 -1.785156 5.65625 -2.234375 C 5.65625 -2.566406 5.507812 -2.847656 5.21875 -3.078125 C 4.925781 -3.316406 4.363281 -3.597656 3.53125 -3.921875 C 2.726562 -4.222656 2.160156 -4.484375 1.828125 -4.703125 C 1.492188 -4.921875 1.242188 -5.171875 1.078125 -5.453125 C 0.910156 -5.734375 0.828125 -6.070312 0.828125 -6.46875 C 0.828125 -7.164062 1.109375 -7.710938 1.671875 -8.109375 C 2.242188 -8.515625 3.023438 -8.71875 4.015625 -8.71875 C 4.941406 -8.71875 5.84375 -8.53125 6.71875 -8.15625 L 6.265625 -7.109375 C 5.398438 -7.460938 4.617188 -7.640625 3.921875 -7.640625 C 3.304688 -7.640625 2.84375 -7.539062 2.53125 -7.34375 C 2.21875 -7.15625 2.0625 -6.890625 2.0625 -6.546875 C 2.0625 -6.316406 2.117188 -6.117188 2.234375 -5.953125 C 2.359375 -5.796875 2.550781 -5.644531 2.8125 -5.5 C 3.070312 -5.351562 3.570312 -5.144531 4.3125 -4.875 C 5.320312 -4.5 6.003906 -4.125 6.359375 -3.75 C 6.722656 -3.375 6.90625 -2.90625 6.90625 -2.34375 Z M 6.90625 -2.34375 "/></g></g></g><path fill="#0d62ad" d="M 68.703125 170.1875 C 54.273438 195.636719 49.773438 223.117188 57.210938 253.039062 C 74.710938 323.421875 153.027344 386.921875 223.664062 351.917969 C 262.640625 332.601562 278.0625 285.292969 251.269531 248.65625 C 236.585938 228.570312 213.097656 211.675781 187.402344 195.582031 C 154.347656 175.484375 106.214844 143.398438 111.183594 99.167969 C 92.074219 119.902344 79.089844 143.765625 94.210938 170.355469 C 105.8125 190.753906 127.613281 209.445312 155.160156 227.1875 C 166.964844 235.886719 178.433594 244.929688 186.765625 256.976562 C 210.230469 290.902344 183.304688 313.863281 148.851562 309.960938 C 114.710938 306.089844 98.0625 289.441406 90.613281 266.085938 C 103.890625 276.816406 117.628906 286.742188 133.832031 290.980469 C 160.523438 297.960938 167.613281 281.445312 159.941406 263.230469 C 155.886719 253.617188 148.40625 244.53125 139.347656 237.269531 C 111.207031 214.695312 93.851562 199.863281 68.703125 170.1875 " fill-opacity="1" fill-rule="evenodd"/><path fill="#034e8f" d="M 239.03125 341.902344 C 266.210938 319.152344 274.195312 279.996094 251.28125 248.65625 C 236.597656 228.570312 213.109375 211.675781 187.414062 195.582031 C 154.359375 175.484375 106.226562 143.398438 111.195312 99.167969 C 99.882812 131.667969 105.34375 153.714844 129.476562 176.890625 C 159.28125 205.507812 199.074219 226.375 225.929688 257.230469 C 245.21875 279.414062 255.367188 306.058594 239.03125 341.902344 " fill-opacity="1" fill-rule="evenodd"/><path fill="#034e8f" d="M 162.800781 277.640625 C 163.078125 273.28125 162.085938 268.316406 159.929688 263.210938 C 155.875 253.597656 148.394531 244.507812 139.335938 237.246094 C 111.195312 214.6875 93.839844 199.851562 68.691406 170.1875 C 93.773438 232.472656 143.144531 233.300781 162.800781 277.640625 " fill-opacity="1" fill-rule="evenodd"/><g clip-path="url(#d26f038c19)"><path fill="#0098da" d="M 187.859375 11.921875 C 155.742188 36.546875 115.898438 70.394531 134.679688 110.289062 C 150.226562 143.300781 199.832031 174.011719 228.0625 196.84375 C 278.820312 237.871094 317.515625 270.703125 266.390625 335.019531 C 308.4375 295.207031 325.601562 249.28125 285.128906 201.449219 C 273.941406 188.222656 260.617188 175.875 245.351562 164.320312 C 216.515625 142.507812 174.839844 118.296875 174.570312 77.5 C 199.261719 115.453125 221.027344 125.253906 254.488281 149.542969 C 285.554688 172.09375 306.035156 198.179688 316.457031 227.601562 C 313.71875 193.898438 300.832031 163.5625 280.273438 135.792969 C 265.230469 115.472656 246.167969 96.636719 228.210938 77.175781 C 208.019531 55.273438 196.960938 41.566406 187.859375 11.921875 " fill-opacity="1" fill-rule="evenodd"/></g><g clip-path="url(#f665e2dbe5)"><path fill="#007fb5" d="M 310.925781 214.261719 C 313.003906 218.632812 314.847656 223.074219 316.457031 227.601562 C 313.71875 193.898438 300.832031 163.5625 280.273438 135.792969 C 265.230469 115.472656 246.167969 96.636719 228.210938 77.175781 C 208.007812 55.285156 196.960938 41.578125 187.859375 11.933594 C 188.015625 33.246094 192.761719 51.925781 202.667969 70.675781 C 214.617188 93.269531 229.984375 104.632812 250.308594 123.625 C 260.09375 132.769531 269.238281 142.519531 277.660156 152.96875 C 291.304688 169.875 306.917969 193.074219 310.925781 214.261719 Z M 310.925781 214.261719 " fill-opacity="1" fill-rule="evenodd"/></g><path fill="#007fb5" d="M 136.757812 64.140625 C 129.175781 78.335938 126.90625 93.792969 134.667969 110.289062 C 150.214844 143.300781 199.820312 174.011719 228.054688 196.84375 C 242.558594 208.5625 256.070312 219.625 266.792969 230.933594 C 235.679688 187.875 184.53125 163.328125 155.699219 122.488281 C 143.4375 105.113281 136.007812 85.6875 136.757812 64.140625 " fill-opacity="1" fill-rule="evenodd"/></svg>