<svg xmlns="http://www.w3.org/2000/svg" xmlns:xlink="http://www.w3.org/1999/xlink" width="210" zoomAndPan="magnify" viewBox="0 0 157.5 31.5" height="42" preserveAspectRatio="xMidYMid meet" version="1.0"><defs><g/><clipPath id="858754382c"><path d="M 6.300781 7 L 25 7 L 25 29 L 6.300781 29 Z M 6.300781 7 " clip-rule="nonzero"/></clipPath></defs><g clip-path="url(#858754382c)"><path fill="#0d62ad" d="M 7.875 13.085938 C 6.675781 15.191406 6.304688 17.464844 6.921875 19.9375 C 8.371094 25.757812 14.867188 31.007812 20.726562 28.113281 C 23.960938 26.515625 25.238281 22.605469 23.019531 19.574219 C 21.800781 17.914062 19.851562 16.515625 17.71875 15.1875 C 14.976562 13.523438 10.984375 10.871094 11.398438 7.214844 C 9.8125 8.929688 8.734375 10.902344 9.988281 13.101562 C 10.953125 14.785156 12.761719 16.332031 15.046875 17.800781 C 16.023438 18.519531 16.976562 19.265625 17.667969 20.261719 C 19.613281 23.066406 17.378906 24.964844 14.523438 24.644531 C 11.691406 24.324219 10.308594 22.945312 9.691406 21.015625 C 10.792969 21.902344 11.933594 22.722656 13.277344 23.074219 C 15.488281 23.652344 16.078125 22.285156 15.441406 20.78125 C 15.105469 19.984375 14.484375 19.234375 13.734375 18.632812 C 11.398438 16.765625 9.960938 15.539062 7.875 13.085938 " fill-opacity="1" fill-rule="evenodd"/></g><path fill="#034e8f" d="M 22.003906 27.285156 C 24.257812 25.402344 24.917969 22.167969 23.019531 19.574219 C 21.800781 17.914062 19.851562 16.515625 17.71875 15.1875 C 14.980469 13.523438 10.984375 10.871094 11.398438 7.214844 C 10.460938 9.902344 10.914062 11.722656 12.914062 13.640625 C 15.386719 16.007812 18.6875 17.730469 20.914062 20.285156 C 22.515625 22.117188 23.359375 24.320312 22.003906 27.285156 " fill-opacity="1" fill-rule="evenodd"/><path fill="#034e8f" d="M 15.679688 21.972656 C 15.703125 21.609375 15.621094 21.199219 15.441406 20.777344 C 15.105469 19.984375 14.484375 19.230469 13.734375 18.632812 C 11.398438 16.765625 9.957031 15.539062 7.871094 13.085938 C 9.953125 18.238281 14.046875 18.304688 15.679688 21.972656 " fill-opacity="1" fill-rule="evenodd"/><path fill="#0098da" d="M 17.757812 0 C 15.09375 2.035156 11.789062 4.835938 13.347656 8.132812 C 14.636719 10.863281 18.75 13.402344 21.09375 15.289062 C 25.304688 18.683594 28.511719 21.398438 24.273438 26.714844 C 27.757812 23.425781 29.183594 19.625 25.828125 15.671875 C 24.898438 14.578125 23.792969 13.558594 22.527344 12.601562 C 20.136719 10.796875 16.675781 8.796875 16.65625 5.421875 C 18.703125 8.558594 20.507812 9.371094 23.285156 11.378906 C 25.863281 13.242188 27.558594 15.402344 28.425781 17.832031 C 28.199219 15.046875 27.128906 12.539062 25.421875 10.242188 C 24.175781 8.5625 22.59375 7.003906 21.105469 5.394531 C 19.429688 3.585938 18.511719 2.449219 17.757812 0 " fill-opacity="1" fill-rule="evenodd"/><path fill="#007fb5" d="M 27.964844 16.730469 C 28.136719 17.09375 28.292969 17.460938 28.425781 17.832031 C 28.199219 15.046875 27.128906 12.539062 25.421875 10.242188 C 24.175781 8.5625 22.59375 7.003906 21.105469 5.394531 C 19.429688 3.585938 18.511719 2.453125 17.757812 0 C 17.769531 1.761719 18.164062 3.308594 18.984375 4.859375 C 19.976562 6.726562 21.253906 7.664062 22.9375 9.238281 C 23.75 9.992188 24.507812 10.796875 25.207031 11.664062 C 26.339844 13.0625 27.632812 14.980469 27.964844 16.730469 Z M 27.964844 16.730469 " fill-opacity="1" fill-rule="evenodd"/><path fill="#007fb5" d="M 13.519531 4.316406 C 12.890625 5.492188 12.703125 6.769531 13.34375 8.132812 C 14.636719 10.863281 18.75 13.402344 21.089844 15.289062 C 22.296875 16.257812 23.414062 17.175781 24.304688 18.109375 C 21.722656 14.550781 17.480469 12.519531 15.089844 9.140625 C 14.074219 7.707031 13.457031 6.097656 13.519531 4.316406 " fill-opacity="1" fill-rule="evenodd"/><g fill="#000000" fill-opacity="1"><g transform="translate(32.422167, 20.593685)"><g><path d="M 2.90625 -6.28125 L 6.046875 -6.28125 C 6.828125 -6.28125 7.414062 -6.453125 7.8125 -6.796875 C 8.21875 -7.148438 8.421875 -7.679688 8.421875 -8.390625 C 8.421875 -9.015625 8.226562 -9.492188 7.84375 -9.828125 C 7.46875 -10.160156 6.890625 -10.328125 6.109375 -10.328125 L 2.90625 -10.328125 Z M 2.90625 0 L 1.3125 0 L 1.3125 -11.6875 L 6.578125 -11.6875 C 7.617188 -11.6875 8.457031 -11.378906 9.09375 -10.765625 C 9.726562 -10.160156 10.046875 -9.375 10.046875 -8.40625 C 10.046875 -7.394531 9.738281 -6.5625 9.125 -5.90625 C 8.507812 -5.257812 7.660156 -4.9375 6.578125 -4.9375 L 2.90625 -4.9375 Z M 2.90625 0 "/></g></g><g transform="translate(42.951645, 20.593685)"><g><path d="M 2.90625 -1.34375 L 5.96875 -1.34375 C 7.019531 -1.34375 7.84375 -1.75 8.4375 -2.5625 C 9.039062 -3.382812 9.34375 -4.5 9.34375 -5.90625 C 9.34375 -7.300781 9.039062 -8.382812 8.4375 -9.15625 C 7.832031 -9.925781 6.960938 -10.316406 5.828125 -10.328125 L 2.90625 -10.328125 Z M 1.3125 -11.6875 L 6.0625 -11.6875 C 7.59375 -11.6875 8.789062 -11.160156 9.65625 -10.109375 C 10.519531 -9.054688 10.953125 -7.691406 10.953125 -6.015625 C 10.953125 -4.210938 10.519531 -2.757812 9.65625 -1.65625 C 8.789062 -0.550781 7.570312 0 6 0 L 1.3125 0 Z M 1.3125 -11.6875 "/></g></g><g transform="translate(54.681992, 20.593685)"><g><path d="M 7.15625 -4.796875 L 5.4375 -9.9375 L 5.40625 -9.9375 L 3.53125 -4.796875 Z M 3.046875 -3.40625 L 1.828125 0 L 0.203125 0 L 4.59375 -11.6875 L 6.390625 -11.6875 L 10.609375 0 L 8.890625 0 L 7.734375 -3.40625 Z M 3.046875 -3.40625 "/></g></g><g transform="translate(65.545487, 20.593685)"><g><path d="M 10.984375 0 L 10.984375 -6.90625 C 10.984375 -6.988281 10.988281 -7.425781 11 -8.21875 C 11.007812 -9.007812 11.015625 -9.539062 11.015625 -9.8125 L 10.96875 -9.8125 L 7.703125 0 L 6.140625 0 L 2.859375 -9.796875 L 2.8125 -9.796875 C 2.8125 -9.410156 2.816406 -8.851562 2.828125 -8.125 C 2.835938 -7.394531 2.84375 -6.988281 2.84375 -6.90625 L 2.84375 0 L 1.3125 0 L 1.3125 -11.6875 L 3.578125 -11.6875 L 6.90625 -1.796875 L 6.953125 -1.796875 L 10.25 -11.6875 L 12.515625 -11.6875 L 12.515625 0 Z M 10.984375 0 "/></g></g><g transform="translate(79.391274, 20.593685)"><g/></g><g transform="translate(83.367663, 20.593685)"><g><path d="M 1.3125 -11.6875 L 6.453125 -11.6875 C 7.453125 -11.6875 8.25 -11.410156 8.84375 -10.859375 C 9.445312 -10.316406 9.75 -9.613281 9.75 -8.75 C 9.75 -8.21875 9.617188 -7.734375 9.359375 -7.296875 C 9.097656 -6.867188 8.707031 -6.535156 8.1875 -6.296875 C 8.914062 -6.023438 9.445312 -5.660156 9.78125 -5.203125 C 10.125 -4.753906 10.296875 -4.171875 10.296875 -3.453125 C 10.296875 -2.441406 9.929688 -1.613281 9.203125 -0.96875 C 8.484375 -0.320312 7.53125 0 6.34375 0 L 1.3125 0 Z M 2.875 -1.34375 L 6.25 -1.34375 C 7.070312 -1.34375 7.691406 -1.535156 8.109375 -1.921875 C 8.523438 -2.304688 8.734375 -2.828125 8.734375 -3.484375 C 8.734375 -4.140625 8.5 -4.628906 8.03125 -4.953125 C 7.570312 -5.285156 6.894531 -5.453125 6 -5.453125 L 2.875 -5.453125 Z M 2.875 -6.734375 L 5.75 -6.734375 C 6.582031 -6.734375 7.191406 -6.882812 7.578125 -7.1875 C 7.972656 -7.5 8.171875 -7.976562 8.171875 -8.625 C 8.171875 -9.175781 7.984375 -9.597656 7.609375 -9.890625 C 7.242188 -10.179688 6.628906 -10.328125 5.765625 -10.328125 L 2.875 -10.328125 Z M 2.875 -6.734375 "/></g></g><g transform="translate(94.310685, 20.593685)"><g><path d="M 10.4375 -11.6875 L 10.4375 -4.109375 C 10.4375 -2.804688 10.023438 -1.742188 9.203125 -0.921875 C 8.390625 -0.0976562 7.234375 0.3125 5.734375 0.3125 C 4.335938 0.3125 3.238281 -0.0664062 2.4375 -0.828125 C 1.632812 -1.585938 1.234375 -2.609375 1.234375 -3.890625 L 1.234375 -11.6875 L 2.796875 -11.6875 L 2.796875 -4.328125 C 2.796875 -3.253906 3.0625 -2.445312 3.59375 -1.90625 C 4.132812 -1.363281 4.859375 -1.09375 5.765625 -1.09375 C 6.722656 -1.09375 7.472656 -1.363281 8.015625 -1.90625 C 8.566406 -2.445312 8.84375 -3.242188 8.84375 -4.296875 L 8.84375 -11.6875 Z M 10.4375 -11.6875 "/></g></g><g transform="translate(105.969458, 20.593685)"><g><path d="M 10.984375 0 L 10.984375 -6.90625 C 10.984375 -6.988281 10.988281 -7.425781 11 -8.21875 C 11.007812 -9.007812 11.015625 -9.539062 11.015625 -9.8125 L 10.96875 -9.8125 L 7.703125 0 L 6.140625 0 L 2.859375 -9.796875 L 2.8125 -9.796875 C 2.8125 -9.410156 2.816406 -8.851562 2.828125 -8.125 C 2.835938 -7.394531 2.84375 -6.988281 2.84375 -6.90625 L 2.84375 0 L 1.3125 0 L 1.3125 -11.6875 L 3.578125 -11.6875 L 6.90625 -1.796875 L 6.953125 -1.796875 L 10.25 -11.6875 L 12.515625 -11.6875 L 12.515625 0 Z M 10.984375 0 "/></g></g><g transform="translate(119.815245, 20.593685)"><g><path d="M 2.90625 -1.34375 L 5.96875 -1.34375 C 7.019531 -1.34375 7.84375 -1.75 8.4375 -2.5625 C 9.039062 -3.382812 9.34375 -4.5 9.34375 -5.90625 C 9.34375 -7.300781 9.039062 -8.382812 8.4375 -9.15625 C 7.832031 -9.925781 6.960938 -10.316406 5.828125 -10.328125 L 2.90625 -10.328125 Z M 1.3125 -11.6875 L 6.0625 -11.6875 C 7.59375 -11.6875 8.789062 -11.160156 9.65625 -10.109375 C 10.519531 -9.054688 10.953125 -7.691406 10.953125 -6.015625 C 10.953125 -4.210938 10.519531 -2.757812 9.65625 -1.65625 C 8.789062 -0.550781 7.570312 0 6 0 L 1.3125 0 Z M 1.3125 -11.6875 "/></g></g><g transform="translate(131.545592, 20.593685)"><g><path d="M 9.9375 0 L 1.3125 0 L 1.3125 -11.6875 L 9.828125 -11.6875 L 9.828125 -10.28125 L 2.90625 -10.28125 L 2.90625 -6.703125 L 9.296875 -6.703125 L 9.296875 -5.3125 L 2.90625 -5.3125 L 2.90625 -1.40625 L 9.9375 -1.40625 Z M 9.9375 0 "/></g></g><g transform="translate(142.13074, 20.593685)"><g><path d="M 8.203125 -8.265625 C 8.171875 -9.003906 7.894531 -9.582031 7.375 -10 C 6.851562 -10.425781 6.164062 -10.640625 5.3125 -10.640625 C 4.445312 -10.640625 3.785156 -10.460938 3.328125 -10.109375 C 2.867188 -9.765625 2.640625 -9.257812 2.640625 -8.59375 C 2.640625 -8.238281 2.738281 -7.929688 2.9375 -7.671875 C 3.144531 -7.421875 3.503906 -7.234375 4.015625 -7.109375 L 7.359375 -6.359375 C 8.265625 -6.160156 8.929688 -5.785156 9.359375 -5.234375 C 9.796875 -4.679688 10.015625 -4.015625 10.015625 -3.234375 C 10.015625 -2.078125 9.585938 -1.195312 8.734375 -0.59375 C 7.890625 0.0078125 6.789062 0.3125 5.4375 0.3125 C 4.40625 0.3125 3.585938 0.179688 2.984375 -0.078125 C 2.390625 -0.347656 1.863281 -0.769531 1.40625 -1.34375 C 0.945312 -1.925781 0.71875 -2.738281 0.71875 -3.78125 L 2.1875 -3.78125 C 2.1875 -2.90625 2.472656 -2.226562 3.046875 -1.75 C 3.628906 -1.28125 4.421875 -1.046875 5.421875 -1.046875 C 6.390625 -1.046875 7.140625 -1.210938 7.671875 -1.546875 C 8.210938 -1.890625 8.484375 -2.378906 8.484375 -3.015625 C 8.484375 -3.585938 8.320312 -4.015625 8 -4.296875 C 7.675781 -4.578125 7.050781 -4.828125 6.125 -5.046875 L 3.59375 -5.640625 C 2.757812 -5.828125 2.132812 -6.15625 1.71875 -6.625 C 1.3125 -7.101562 1.109375 -7.691406 1.109375 -8.390625 C 1.109375 -9.441406 1.460938 -10.304688 2.171875 -10.984375 C 2.878906 -11.660156 3.863281 -12 5.125 -12 C 6.5625 -12 7.664062 -11.695312 8.4375 -11.09375 C 9.21875 -10.5 9.632812 -9.554688 9.6875 -8.265625 Z M 8.203125 -8.265625 "/></g></g></g></svg>